<svg id="my-svg" width="100%" xmlns="http://www.w3.org/2000/svg" xmlns:xlink="http://www.w3.org/1999/xlink" class="classDiagram" style="max-width: 988.625px; background-color: transparent;" viewBox="0 0 988.625 644" role="graphics-document document" aria-roledescription="class"><style>#my-svg{font-family:"trebuchet ms",verdana,arial,sans-serif;font-size:16px;fill:#333;}@keyframes edge-animation-frame{from{stroke-dashoffset:0;}}@keyframes dash{to{stroke-dashoffset:0;}}#my-svg .edge-animation-slow{stroke-dasharray:9,5!important;stroke-dashoffset:900;animation:dash 50s linear infinite;stroke-linecap:round;}#my-svg .edge-animation-fast{stroke-dasharray:9,5!important;stroke-dashoffset:900;animation:dash 20s linear infinite;stroke-linecap:round;}#my-svg .error-icon{fill:#552222;}#my-svg .error-text{fill:#552222;stroke:#552222;}#my-svg .edge-thickness-normal{stroke-width:1px;}#my-svg .edge-thickness-thick{stroke-width:3.5px;}#my-svg .edge-pattern-solid{stroke-dasharray:0;}#my-svg .edge-thickness-invisible{stroke-width:0;fill:none;}#my-svg .edge-pattern-dashed{stroke-dasharray:3;}#my-svg .edge-pattern-dotted{stroke-dasharray:2;}#my-svg .marker{fill:#333333;stroke:#333333;}#my-svg .marker.cross{stroke:#333333;}#my-svg svg{font-family:"trebuchet ms",verdana,arial,sans-serif;font-size:16px;}#my-svg p{margin:0;}#my-svg g.classGroup text{fill:#9370DB;stroke:none;font-family:"trebuchet ms",verdana,arial,sans-serif;font-size:10px;}#my-svg g.classGroup text .title{font-weight:bolder;}#my-svg .cluster-label text{fill:#333;}#my-svg .cluster-label span{color:#333;}#my-svg .cluster-label span p{background-color:transparent;}#my-svg .cluster rect{fill:#ffffde;stroke:#aaaa33;stroke-width:1px;}#my-svg .cluster text{fill:#333;}#my-svg .cluster span{color:#333;}#my-svg .nodeLabel,#my-svg .edgeLabel{color:#131300;}#my-svg .noteLabel .nodeLabel,#my-svg .noteLabel .edgeLabel{color:black;}#my-svg .edgeLabel .label rect{fill:#ECECFF;}#my-svg .label text{fill:#131300;}#my-svg .labelBkg{background:#ECECFF;}#my-svg .edgeLabel .label span{background:#ECECFF;}#my-svg .classTitle{font-weight:bolder;}#my-svg .node rect,#my-svg .node circle,#my-svg .node ellipse,#my-svg .node polygon,#my-svg .node path{fill:#ECECFF;stroke:#9370DB;stroke-width:1;}#my-svg .divider{stroke:#9370DB;stroke-width:1;}#my-svg g.clickable{cursor:pointer;}#my-svg g.classGroup rect{fill:#ECECFF;stroke:#9370DB;}#my-svg g.classGroup line{stroke:#9370DB;stroke-width:1;}#my-svg .classLabel .box{stroke:none;stroke-width:0;fill:#ECECFF;opacity:0.5;}#my-svg .classLabel .label{fill:#9370DB;font-size:10px;}#my-svg .relation{stroke:#333333;stroke-width:1;fill:none;}#my-svg .dashed-line{stroke-dasharray:3;}#my-svg .dotted-line{stroke-dasharray:1 2;}#my-svg [id$="-compositionStart"],#my-svg .composition{fill:#333333!important;stroke:#333333!important;stroke-width:1;}#my-svg [id$="-compositionEnd"],#my-svg .composition{fill:#333333!important;stroke:#333333!important;stroke-width:1;}#my-svg [id$="-dependencyStart"],#my-svg .dependency{fill:#333333!important;stroke:#333333!important;stroke-width:1;}#my-svg [id$="-dependencyEnd"],#my-svg .dependency{fill:#333333!important;stroke:#333333!important;stroke-width:1;}#my-svg [id$="-extensionStart"],#my-svg .extension{fill:transparent!important;stroke:#333333!important;stroke-width:1;}#my-svg [id$="-extensionEnd"],#my-svg .extension{fill:transparent!important;stroke:#333333!important;stroke-width:1;}#my-svg [id$="-aggregationStart"],#my-svg .aggregation{fill:transparent!important;stroke:#333333!important;stroke-width:1;}#my-svg [id$="-aggregationEnd"],#my-svg .aggregation{fill:transparent!important;stroke:#333333!important;stroke-width:1;}#my-svg [id$="-lollipopStart"],#my-svg .lollipop{fill:#ECECFF!important;stroke:#333333!important;stroke-width:1;}#my-svg [id$="-lollipopEnd"],#my-svg .lollipop{fill:#ECECFF!important;stroke:#333333!important;stroke-width:1;}#my-svg .edgeTerminals{font-size:11px;line-height:initial;}#my-svg .classTitleText{text-anchor:middle;font-size:18px;fill:#333;}#my-svg .edgeLabel[data-look="neo"]{background-color:rgba(232,232,232, 0.8);text-align:center;}#my-svg .edgeLabel[data-look="neo"] p{background-color:rgba(232,232,232, 0.8);}#my-svg .edgeLabel[data-look="neo"] rect{opacity:0.5;background-color:rgba(232,232,232, 0.8);fill:rgba(232,232,232, 0.8);}#my-svg .label-icon{display:inline-block;height:1em;overflow:visible;vertical-align:-0.125em;}#my-svg .node .label-icon path{fill:currentColor;stroke:revert;stroke-width:revert;}#my-svg .node .neo-node{stroke:#9370DB;}#my-svg [data-look="neo"].node rect,#my-svg [data-look="neo"].cluster rect,#my-svg [data-look="neo"].node polygon{stroke:#9370DB;filter:drop-shadow(1px 2px 2px rgba(185, 185, 185, 1));}#my-svg [data-look="neo"].node path{stroke:#9370DB;stroke-width:1px;}#my-svg [data-look="neo"].node .outer-path{filter:drop-shadow(1px 2px 2px rgba(185, 185, 185, 1));}#my-svg [data-look="neo"].node .neo-line path{stroke:#9370DB;filter:none;}#my-svg [data-look="neo"].node circle{stroke:#9370DB;filter:drop-shadow(1px 2px 2px rgba(185, 185, 185, 1));}#my-svg [data-look="neo"].node circle .state-start{fill:#000000;}#my-svg [data-look="neo"].icon-shape .icon{fill:#9370DB;filter:drop-shadow(1px 2px 2px rgba(185, 185, 185, 1));}#my-svg [data-look="neo"].icon-shape .icon-neo path{stroke:#9370DB;filter:drop-shadow(1px 2px 2px rgba(185, 185, 185, 1));}#my-svg :root{--mermaid-font-family:"trebuchet ms",verdana,arial,sans-serif;}</style><g><defs><marker id="my-svg_class-aggregationStart" class="marker aggregation class" refX="18" refY="7" markerWidth="190" markerHeight="240" orient="auto"><path d="M 18,7 L9,13 L1,7 L9,1 Z"/></marker></defs><defs><marker id="my-svg_class-aggregationEnd" class="marker aggregation class" refX="1" refY="7" markerWidth="20" markerHeight="28" orient="auto"><path d="M 18,7 L9,13 L1,7 L9,1 Z"/></marker></defs><defs><marker id="my-svg_class-aggregationStart-margin" class="marker aggregation class" refX="15" refY="7" markerWidth="190" markerHeight="240" orient="auto" markerUnits="userSpaceOnUse"><path d="M 18,7 L9,13 L1,7 L9,1 Z" style="stroke-width: 2;"/></marker></defs><defs><marker id="my-svg_class-aggregationEnd-margin" class="marker aggregation class" refX="1" refY="7" markerWidth="20" markerHeight="28" orient="auto" markerUnits="userSpaceOnUse"><path d="M 18,7 L9,13 L1,7 L9,1 Z" style="stroke-width: 2;"/></marker></defs><defs><marker id="my-svg_class-extensionStart" class="marker extension class" refX="18" refY="7" markerWidth="190" markerHeight="240" orient="auto" markerUnits="userSpaceOnUse"><path d="M 1,7 L18,13 V 1 Z"/></marker></defs><defs><marker id="my-svg_class-extensionEnd" class="marker extension class" refX="1" refY="7" markerWidth="20" markerHeight="28" orient="auto"><path d="M 1,1 V 13 L18,7 Z"/></marker></defs><marker id="my-svg_class-extensionStart-margin" class="marker extension class" refX="18" refY="7" markerWidth="20" markerHeight="28" orient="auto" markerUnits="userSpaceOnUse" viewBox="0 0 20 14"><polygon points="10,7 18,13 18,1" style="stroke-width: 2; stroke-dasharray: 0;"/></marker><defs><marker id="my-svg_class-extensionEnd-margin" class="marker extension class" refX="9" refY="7" markerWidth="20" markerHeight="28" orient="auto" markerUnits="userSpaceOnUse" viewBox="0 0 20 14"><polygon points="10,1 10,13 18,7" style="stroke-width: 2; stroke-dasharray: 0;"/></marker></defs><defs><marker id="my-svg_class-compositionStart" class="marker composition class" refX="18" refY="7" markerWidth="190" markerHeight="240" orient="auto"><path d="M 18,7 L9,13 L1,7 L9,1 Z"/></marker></defs><defs><marker id="my-svg_class-compositionEnd" class="marker composition class" refX="1" refY="7" markerWidth="20" markerHeight="28" orient="auto"><path d="M 18,7 L9,13 L1,7 L9,1 Z"/></marker></defs><defs><marker id="my-svg_class-compositionStart-margin" class="marker composition class" refX="15" refY="7" markerWidth="190" markerHeight="240" orient="auto" markerUnits="userSpaceOnUse"><path viewBox="0 0 15 15" d="M 18,7 L9,13 L1,7 L9,1 Z" style="stroke-width: 0;"/></marker></defs><defs><marker id="my-svg_class-compositionEnd-margin" class="marker composition class" refX="3.5" refY="7" markerWidth="20" markerHeight="28" orient="auto" markerUnits="userSpaceOnUse"><path d="M 18,7 L9,13 L1,7 L9,1 Z" style="stroke-width: 0;"/></marker></defs><defs><marker id="my-svg_class-dependencyStart" class="marker dependency class" refX="6" refY="7" markerWidth="190" markerHeight="240" orient="auto"><path d="M 5,7 L9,13 L1,7 L9,1 Z"/></marker></defs><defs><marker id="my-svg_class-dependencyEnd" class="marker dependency class" refX="13" refY="7" markerWidth="20" markerHeight="28" orient="auto"><path d="M 18,7 L9,13 L14,7 L9,1 Z"/></marker></defs><defs><marker id="my-svg_class-dependencyStart-margin" class="marker dependency class" refX="4" refY="7" markerWidth="190" markerHeight="240" orient="auto" markerUnits="userSpaceOnUse"><path d="M 5,7 L9,13 L1,7 L9,1 Z" style="stroke-width: 0;"/></marker></defs><defs><marker id="my-svg_class-dependencyEnd-margin" class="marker dependency class" refX="16" refY="7" markerWidth="20" markerHeight="28" orient="auto" markerUnits="userSpaceOnUse"><path d="M 18,7 L9,13 L14,7 L9,1 Z" style="stroke-width: 0;"/></marker></defs><defs><marker id="my-svg_class-lollipopStart" class="marker lollipop class" refX="13" refY="7" markerWidth="190" markerHeight="240" orient="auto"><circle fill="transparent" cx="7" cy="7" r="6"/></marker></defs><defs><marker id="my-svg_class-lollipopEnd" class="marker lollipop class" refX="1" refY="7" markerWidth="190" markerHeight="240" orient="auto"><circle fill="transparent" cx="7" cy="7" r="6"/></marker></defs><defs><marker id="my-svg_class-lollipopStart-margin" class="marker lollipop class" refX="13" refY="7" markerWidth="190" markerHeight="240" orient="auto" markerUnits="userSpaceOnUse"><circle fill="transparent" cx="7" cy="7" r="6" stroke-width="2"/></marker></defs><defs><marker id="my-svg_class-lollipopEnd-margin" class="marker lollipop class" refX="1" refY="7" markerWidth="190" markerHeight="240" orient="auto" markerUnits="userSpaceOnUse"><circle fill="transparent" cx="7" cy="7" r="6" stroke-width="2"/></marker></defs><g class="root"><g class="clusters"/><g class="edgePaths"><path d="M350.67,172.283L342.603,177.069C334.535,181.856,318.4,191.428,310.333,199.381C302.266,207.333,302.266,213.667,302.266,216.833L302.266,220" id="my-svg-id_user_john_msg_privacy_1" class="edge-thickness-normal edge-pattern-solid relation" style=";;;" data-edge="true" data-et="edge" data-id="id_user_john_msg_privacy_1" data-points="W3sieCI6MzUwLjY2OTkyMTg3NSwieSI6MTcyLjI4MzM0NTIwNDA1MjM1fSx7IngiOjMwMi4yNjU2MjUsInkiOjIwMX0seyJ4IjozMDIuMjY1NjI1LCJ5IjoyMjZ9XQ==" data-look="classic" marker-end="url(#my-svg_class-dependencyEnd)"/><path d="M621.318,136.672L653.797,147.393C686.275,158.115,751.231,179.557,783.709,193.445C816.188,207.333,816.188,213.667,816.188,216.833L816.188,220" id="my-svg-id_user_john_msg_education_2" class="edge-thickness-normal edge-pattern-solid relation" style=";;;" data-edge="true" data-et="edge" data-id="id_user_john_msg_education_2" data-points="W3sieCI6NjIxLjMxODM1OTM3NSwieSI6MTM2LjY3MTgyNDYyOTI3MTQ0fSx7IngiOjgxNi4xODc1LCJ5IjoyMDF9LHsieCI6ODE2LjE4NzUsInkiOjIyNn1d" data-look="classic" marker-end="url(#my-svg_class-dependencyEnd)"/><path d="M184.955,370L178.167,374.167C171.378,378.333,157.8,386.667,151.011,394C144.223,401.333,144.223,407.667,144.223,410.833L144.223,414" id="my-svg-id_msg_privacy_art_privacy_3" class="edge-thickness-normal edge-pattern-solid relation" style=";;;" data-edge="true" data-et="edge" data-id="id_msg_privacy_art_privacy_3" data-points="W3sieCI6MTg0Ljk1NTM4MDE1NDYzOTE2LCJ5IjozNzB9LHsieCI6MTQ0LjIyMjY1NjI1LCJ5IjozOTV9LHsieCI6MTQ0LjIyMjY1NjI1LCJ5Ijo0MjB9XQ==" data-look="classic" marker-end="url(#my-svg_class-dependencyEnd)"/><path d="M419.576,370L426.365,374.167C433.153,378.333,446.731,386.667,453.52,394C460.309,401.333,460.309,407.667,460.309,410.833L460.309,414" id="my-svg-id_msg_privacy_art_info_4" class="edge-thickness-normal edge-pattern-solid relation" style=";;;" data-edge="true" data-et="edge" data-id="id_msg_privacy_art_info_4" data-points="W3sieCI6NDE5LjU3NTg2OTg0NTM2MDg0LCJ5IjozNzB9LHsieCI6NDYwLjMwODU5Mzc1LCJ5IjozOTV9LHsieCI6NDYwLjMwODU5Mzc1LCJ5Ijo0MjB9XQ==" data-look="classic" marker-end="url(#my-svg_class-dependencyEnd)"/><path d="M816.188,370L816.188,374.167C816.188,378.333,816.188,386.667,816.188,394C816.188,401.333,816.188,407.667,816.188,410.833L816.188,414" id="my-svg-id_msg_education_art_education_5" class="edge-thickness-normal edge-pattern-solid relation" style=";;;" data-edge="true" data-et="edge" data-id="id_msg_education_art_education_5" data-points="W3sieCI6ODE2LjE4NzUsInkiOjM3MH0seyJ4Ijo4MTYuMTg3NSwieSI6Mzk1fSx7IngiOjgxNi4xODc1LCJ5Ijo0MjB9XQ==" data-look="classic" marker-end="url(#my-svg_class-dependencyEnd)"/></g><g class="edgeLabels"><g class="edgeLabel"><g class="label" data-id="id_user_john_msg_privacy_1" transform="translate(0, 0)"><foreignObject width="0" height="0"><div xmlns="http://www.w3.org/1999/xhtml" class="labelBkg" style="display: table-cell; white-space: nowrap; line-height: 1.5; max-width: 200px; text-align: center;"><span class="edgeLabel"></span></div></foreignObject></g></g><g class="edgeLabel"><g class="label" data-id="id_user_john_msg_education_2" transform="translate(0, 0)"><foreignObject width="0" height="0"><div xmlns="http://www.w3.org/1999/xhtml" class="labelBkg" style="display: table-cell; white-space: nowrap; line-height: 1.5; max-width: 200px; text-align: center;"><span class="edgeLabel"></span></div></foreignObject></g></g><g class="edgeLabel"><g class="label" data-id="id_msg_privacy_art_privacy_3" transform="translate(0, 0)"><foreignObject width="0" height="0"><div xmlns="http://www.w3.org/1999/xhtml" class="labelBkg" style="display: table-cell; white-space: nowrap; line-height: 1.5; max-width: 200px; text-align: center;"><span class="edgeLabel"></span></div></foreignObject></g></g><g class="edgeLabel"><g class="label" data-id="id_msg_privacy_art_info_4" transform="translate(0, 0)"><foreignObject width="0" height="0"><div xmlns="http://www.w3.org/1999/xhtml" class="labelBkg" style="display: table-cell; white-space: nowrap; line-height: 1.5; max-width: 200px; text-align: center;"><span class="edgeLabel"></span></div></foreignObject></g></g><g class="edgeLabel"><g class="label" data-id="id_msg_education_art_education_5" transform="translate(0, 0)"><foreignObject width="0" height="0"><div xmlns="http://www.w3.org/1999/xhtml" class="labelBkg" style="display: table-cell; white-space: nowrap; line-height: 1.5; max-width: 200px; text-align: center;"><span class="edgeLabel"></span></div></foreignObject></g></g></g><g class="nodes"><g class="node default" id="my-svg-classId-user_john-0" data-look="classic" transform="translate(485.994140625, 92)"><g class="basic label-container outer-path"><path d="M-135.32421875 -84 L135.32421875 -84 L135.32421875 84 L-135.32421875 84" stroke="none" stroke-width="0" fill="#ECECFF" style=""/><path d="M-135.32421875 -84 C-45.03531138642673 -84, 45.253595977146546 -84, 135.32421875 -84 M-135.32421875 -84 C-41.68291573953262 -84, 51.958387270934765 -84, 135.32421875 -84 M135.32421875 -84 C135.32421875 -49.068872571350475, 135.32421875 -14.13774514270095, 135.32421875 84 M135.32421875 -84 C135.32421875 -26.589887996769896, 135.32421875 30.820224006460208, 135.32421875 84 M135.32421875 84 C35.30563658124363 84, -64.71294558751273 84, -135.32421875 84 M135.32421875 84 C71.5259103650096 84, 7.727601980019202 84, -135.32421875 84 M-135.32421875 84 C-135.32421875 35.87693326272061, -135.32421875 -12.246133474558775, -135.32421875 -84 M-135.32421875 84 C-135.32421875 18.049343534587734, -135.32421875 -47.90131293082453, -135.32421875 -84" stroke="#9370DB" stroke-width="1.3" fill="none" stroke-dasharray="0 0" style=""/></g><g class="annotation-group text" transform="translate(0, -60)"/><g class="label-group text" transform="translate(-37.8046875, -60)"><g class="label" style="font-weight: bolder" transform="translate(0,-12)"><foreignObject width="75.609375" height="24"><div xmlns="http://www.w3.org/1999/xhtml" style="display: table-cell; white-space: nowrap; line-height: 1.5; max-width: 115px; text-align: center;"><span class="nodeLabel markdown-node-label" style=""><p>user_john</p></span></div></foreignObject></g></g><g class="members-group text" transform="translate(-123.32421875, -12)"><g class="label" style="" transform="translate(0,-12)"><foreignObject width="157.3125" height="24"><div xmlns="http://www.w3.org/1999/xhtml" style="display: table-cell; white-space: nowrap; line-height: 1.5; max-width: 198px; text-align: center;"><span class="nodeLabel markdown-node-label" style=""><p>fullname = "John Doe"</p></span></div></foreignObject></g><g class="label" style="" transform="translate(0,12)"><foreignObject width="208.84375" height="24"><div xmlns="http://www.w3.org/1999/xhtml" style="display: table-cell; white-space: nowrap; line-height: 1.5; max-width: 245px; text-align: center;"><span class="nodeLabel markdown-node-label" style=""><p>email = "john@example.com"</p></span></div></foreignObject></g><g class="label" style="" transform="translate(0,36)"><foreignObject width="86.84375" height="24"><div xmlns="http://www.w3.org/1999/xhtml" style="display: table-cell; white-space: nowrap; line-height: 1.5; max-width: 133px; text-align: center;"><span class="nodeLabel markdown-node-label" style=""><p>role = "user"</p></span></div></foreignObject></g></g><g class="methods-group text" transform="translate(-123.32421875, 84)"/><g class="divider" style=""><path d="M-135.32421875 -36 C-72.15125612308225 -35.999766586634635, -8.978293496164511 -35.99953317326928, 135.32421875 -35.999 M-135.32421875 -36 C-28.44778151930629 -35.99960510972013, 78.42865571138742 -35.999210219440265, 135.32421875 -35.999" stroke="#9370DB" stroke-width="1.3" fill="none" stroke-dasharray="0 0" style=""/></g><g class="divider" style=""><path d="M-135.32421875 60 C-33.594023809897564 60.000375875788826, 68.13617113020487 60.00075175157765, 135.32421875 60.001 M-135.32421875 60 C-80.50442822745217 60.00020254981344, -25.684637704904333 60.000405099626875, 135.32421875 60.001" stroke="#9370DB" stroke-width="1.3" fill="none" stroke-dasharray="0 0" style=""/></g></g><g class="node default" id="my-svg-classId-msg_privacy-1" data-look="classic" transform="translate(302.265625, 298)"><g class="basic label-container outer-path"><path d="M-170.89453125 -72 L170.89453125 -72 L170.89453125 72 L-170.89453125 72" stroke="none" stroke-width="0" fill="#ECECFF" style=""/><path d="M-170.89453125 -72 C-62.712176024994605 -72, 45.47017920001079 -72, 170.89453125 -72 M-170.89453125 -72 C-42.07717194137305 -72, 86.7401873672539 -72, 170.89453125 -72 M170.89453125 -72 C170.89453125 -31.53006348092171, 170.89453125 8.939873038156577, 170.89453125 72 M170.89453125 -72 C170.89453125 -32.54911521768112, 170.89453125 6.90176956463776, 170.89453125 72 M170.89453125 72 C74.50937552287061 72, -21.875780204258774 72, -170.89453125 72 M170.89453125 72 C93.31135544340927 72, 15.728179636818538 72, -170.89453125 72 M-170.89453125 72 C-170.89453125 18.626960166847056, -170.89453125 -34.74607966630589, -170.89453125 -72 M-170.89453125 72 C-170.89453125 29.36879167885551, -170.89453125 -13.262416642288983, -170.89453125 -72" stroke="#9370DB" stroke-width="1.3" fill="none" stroke-dasharray="0 0" style=""/></g><g class="annotation-group text" transform="translate(0, -48)"/><g class="label-group text" transform="translate(-46.3359375, -48)"><g class="label" style="font-weight: bolder" transform="translate(0,-12)"><foreignObject width="92.671875" height="24"><div xmlns="http://www.w3.org/1999/xhtml" style="display: table-cell; white-space: nowrap; line-height: 1.5; max-width: 135px; text-align: center;"><span class="nodeLabel markdown-node-label" style=""><p>msg_privacy</p></span></div></foreignObject></g></g><g class="members-group text" transform="translate(-158.89453125, 0)"><g class="label" style="" transform="translate(0,-12)"><foreignObject width="271.453125" height="24"><div xmlns="http://www.w3.org/1999/xhtml" style="display: table-cell; white-space: nowrap; line-height: 1.5; max-width: 299px; text-align: center;"><span class="nodeLabel markdown-node-label" style=""><p>query = "What is the right to privacy?"</p></span></div></foreignObject></g><g class="label" style="" transform="translate(0,12)"><foreignObject width="249.703125" height="24"><div xmlns="http://www.w3.org/1999/xhtml" style="display: table-cell; white-space: nowrap; line-height: 1.5; max-width: 274px; text-align: center;"><span class="nodeLabel markdown-node-label" style=""><p>answer = "Article 28 guarantees..."</p></span></div></foreignObject></g></g><g class="methods-group text" transform="translate(-158.89453125, 72)"/><g class="divider" style=""><path d="M-170.89453125 -24 C-80.31724116160456 -23.999734990671072, 10.260048926790887 -23.99946998134214, 170.89453125 -23.999 M-170.89453125 -24 C-75.7728979800685 -23.9997216949174, 19.348735289862987 -23.999443389834806, 170.89453125 -23.999" stroke="#9370DB" stroke-width="1.3" fill="none" stroke-dasharray="0 0" style=""/></g><g class="divider" style=""><path d="M-170.89453125 48 C-94.55695495284897 48.000223347042585, -18.219378655697938 48.00044669408517, 170.89453125 48.001 M-170.89453125 48 C-88.02236368387098 48.00024246582661, -5.150196117741956 48.000484931653226, 170.89453125 48.001" stroke="#9370DB" stroke-width="1.3" fill="none" stroke-dasharray="0 0" style=""/></g></g><g class="node default" id="my-svg-classId-msg_education-2" data-look="classic" transform="translate(816.1875, 298)"><g class="basic label-container outer-path"><path d="M-146.5625 -72 L146.5625 -72 L146.5625 72 L-146.5625 72" stroke="none" stroke-width="0" fill="#ECECFF" style=""/><path d="M-146.5625 -72 C-83.60520348763896 -72, -20.64790697527792 -72, 146.5625 -72 M-146.5625 -72 C-49.330842000179146 -72, 47.90081599964171 -72, 146.5625 -72 M146.5625 -72 C146.5625 -24.896946096475865, 146.5625 22.20610780704827, 146.5625 72 M146.5625 -72 C146.5625 -20.61099177883191, 146.5625 30.77801644233618, 146.5625 72 M146.5625 72 C75.67908685196012 72, 4.795673703920244 72, -146.5625 72 M146.5625 72 C34.69767600056868 72, -77.16714799886265 72, -146.5625 72 M-146.5625 72 C-146.5625 27.114696384652163, -146.5625 -17.770607230695674, -146.5625 -72 M-146.5625 72 C-146.5625 21.30980093229242, -146.5625 -29.380398135415163, -146.5625 -72" stroke="#9370DB" stroke-width="1.3" fill="none" stroke-dasharray="0 0" style=""/></g><g class="annotation-group text" transform="translate(0, -48)"/><g class="label-group text" transform="translate(-56.15625, -48)"><g class="label" style="font-weight: bolder" transform="translate(0,-12)"><foreignObject width="112.3125" height="24"><div xmlns="http://www.w3.org/1999/xhtml" style="display: table-cell; white-space: nowrap; line-height: 1.5; max-width: 149px; text-align: center;"><span class="nodeLabel markdown-node-label" style=""><p>msg_education</p></span></div></foreignObject></g></g><g class="members-group text" transform="translate(-134.5625, 0)"><g class="label" style="" transform="translate(0,-12)"><foreignObject width="201.421875" height="24"><div xmlns="http://www.w3.org/1999/xhtml" style="display: table-cell; white-space: nowrap; line-height: 1.5; max-width: 235px; text-align: center;"><span class="nodeLabel markdown-node-label" style=""><p>query = "Right to education"</p></span></div></foreignObject></g><g class="label" style="" transform="translate(0,12)"><foreignObject width="212.96875" height="24"><div xmlns="http://www.w3.org/1999/xhtml" style="display: table-cell; white-space: nowrap; line-height: 1.5; max-width: 245px; text-align: center;"><span class="nodeLabel markdown-node-label" style=""><p>answer = "Under Article 31..."</p></span></div></foreignObject></g></g><g class="methods-group text" transform="translate(-134.5625, 72)"/><g class="divider" style=""><path d="M-146.5625 -24 C-80.20448191664984 -23.999773618701635, -13.84646383329968 -23.99954723740327, 146.5625 -23.999 M-146.5625 -24 C-76.88901091981059 -23.999762307926378, -7.215521839621175 -23.999524615852756, 146.5625 -23.999" stroke="#9370DB" stroke-width="1.3" fill="none" stroke-dasharray="0 0" style=""/></g><g class="divider" style=""><path d="M-146.5625 48 C-49.90329269278173 48.000329754225355, 46.755914614436534 48.00065950845071, 146.5625 48.001 M-146.5625 48 C-65.74816069435578 48.00027569923857, 15.06617861128845 48.000551398477135, 146.5625 48.001" stroke="#9370DB" stroke-width="1.3" fill="none" stroke-dasharray="0 0" style=""/></g></g><g class="node default" id="my-svg-classId-art_privacy-3" data-look="classic" transform="translate(144.22265625, 528)"><g class="basic label-container outer-path"><path d="M-136.22265625 -108 L136.22265625 -108 L136.22265625 108 L-136.22265625 108" stroke="none" stroke-width="0" fill="#ECECFF" style=""/><path d="M-136.22265625 -108 C-42.4427041069481 -108, 51.3372480361038 -108, 136.22265625 -108 M-136.22265625 -108 C-33.207798302566644 -108, 69.80705964486671 -108, 136.22265625 -108 M136.22265625 -108 C136.22265625 -55.070872930687486, 136.22265625 -2.1417458613749716, 136.22265625 108 M136.22265625 -108 C136.22265625 -34.15113207107663, 136.22265625 39.69773585784674, 136.22265625 108 M136.22265625 108 C75.73155349456391 108, 15.240450739127837 108, -136.22265625 108 M136.22265625 108 C42.63146157961087 108, -50.95973309077826 108, -136.22265625 108 M-136.22265625 108 C-136.22265625 32.07825987428025, -136.22265625 -43.8434802514395, -136.22265625 -108 M-136.22265625 108 C-136.22265625 38.31794514580557, -136.22265625 -31.364109708388867, -136.22265625 -108" stroke="#9370DB" stroke-width="1.3" fill="none" stroke-dasharray="0 0" style=""/></g><g class="annotation-group text" transform="translate(0, -84)"/><g class="label-group text" transform="translate(-42.8515625, -84)"><g class="label" style="font-weight: bolder" transform="translate(0,-12)"><foreignObject width="85.703125" height="24"><div xmlns="http://www.w3.org/1999/xhtml" style="display: table-cell; white-space: nowrap; line-height: 1.5; max-width: 124px; text-align: center;"><span class="nodeLabel markdown-node-label" style=""><p>art_privacy</p></span></div></foreignObject></g></g><g class="members-group text" transform="translate(-124.22265625, -36)"><g class="label" style="" transform="translate(0,-12)"><foreignObject width="172.4375" height="24"><div xmlns="http://www.w3.org/1999/xhtml" style="display: table-cell; white-space: nowrap; line-height: 1.5; max-width: 210px; text-align: center;"><span class="nodeLabel markdown-node-label" style=""><p>title = "Right to privacy"</p></span></div></foreignObject></g><g class="label" style="" transform="translate(0,12)"><foreignObject width="205.59375" height="24"><div xmlns="http://www.w3.org/1999/xhtml" style="display: table-cell; white-space: nowrap; line-height: 1.5; max-width: 237px; text-align: center;"><span class="nodeLabel markdown-node-label" style=""><p>citation = "Part 3, Article 28"</p></span></div></foreignObject></g><g class="label" style="" transform="translate(0,36)"><foreignObject width="165.421875" height="24"><div xmlns="http://www.w3.org/1999/xhtml" style="display: table-cell; white-space: nowrap; line-height: 1.5; max-width: 199px; text-align: center;"><span class="nodeLabel markdown-node-label" style=""><p>relevance_score = 8.47</p></span></div></foreignObject></g><g class="label" style="" transform="translate(0,60)"><foreignObject width="134.375" height="24"><div xmlns="http://www.w3.org/1999/xhtml" style="display: table-cell; white-space: nowrap; line-height: 1.5; max-width: 174px; text-align: center;"><span class="nodeLabel markdown-node-label" style=""><p>bm25_score = 6.12</p></span></div></foreignObject></g><g class="label" style="" transform="translate(0,84)"><foreignObject width="163.78125" height="24"><div xmlns="http://www.w3.org/1999/xhtml" style="display: table-cell; white-space: nowrap; line-height: 1.5; max-width: 201px; text-align: center;"><span class="nodeLabel markdown-node-label" style=""><p>proximity_score = 2.35</p></span></div></foreignObject></g></g><g class="methods-group text" transform="translate(-124.22265625, 108)"/><g class="divider" style=""><path d="M-136.22265625 -60 C-71.09995492653599 -59.99976096963928, -5.977253603071972 -59.99952193927856, 136.22265625 -59.999 M-136.22265625 -60 C-44.88800877668265 -59.99966475970302, 46.44663869663469 -59.99932951940604, 136.22265625 -59.999" stroke="#9370DB" stroke-width="1.3" fill="none" stroke-dasharray="0 0" style=""/></g><g class="divider" style=""><path d="M-136.22265625 84 C-46.144418075616315 84.00033062869517, 43.93382009876737 84.00066125739032, 136.22265625 84.001 M-136.22265625 84 C-61.09978573789313 84.00027573559561, 14.023084774213743 84.00055147119122, 136.22265625 84.001" stroke="#9370DB" stroke-width="1.3" fill="none" stroke-dasharray="0 0" style=""/></g></g><g class="node default" id="my-svg-classId-art_education-4" data-look="classic" transform="translate(816.1875, 528)"><g class="basic label-container outer-path"><path d="M-164.4375 -108 L164.4375 -108 L164.4375 108 L-164.4375 108" stroke="none" stroke-width="0" fill="#ECECFF" style=""/><path d="M-164.4375 -108 C-39.0751720230561 -108, 86.2871559538878 -108, 164.4375 -108 M-164.4375 -108 C-73.00346539890407 -108, 18.43056920219186 -108, 164.4375 -108 M164.4375 -108 C164.4375 -37.23462756267624, 164.4375 33.530744874647525, 164.4375 108 M164.4375 -108 C164.4375 -51.40631444466504, 164.4375 5.187371110669915, 164.4375 108 M164.4375 108 C76.31833858366313 108, -11.800822832673731 108, -164.4375 108 M164.4375 108 C50.24321572218621 108, -63.951068555627586 108, -164.4375 108 M-164.4375 108 C-164.4375 42.583640944339905, -164.4375 -22.83271811132019, -164.4375 -108 M-164.4375 108 C-164.4375 39.85323965679389, -164.4375 -28.293520686412222, -164.4375 -108" stroke="#9370DB" stroke-width="1.3" fill="none" stroke-dasharray="0 0" style=""/></g><g class="annotation-group text" transform="translate(0, -84)"/><g class="label-group text" transform="translate(-52.671875, -84)"><g class="label" style="font-weight: bolder" transform="translate(0,-12)"><foreignObject width="105.34375" height="24"><div xmlns="http://www.w3.org/1999/xhtml" style="display: table-cell; white-space: nowrap; line-height: 1.5; max-width: 138px; text-align: center;"><span class="nodeLabel markdown-node-label" style=""><p>art_education</p></span></div></foreignObject></g></g><g class="members-group text" transform="translate(-152.4375, -36)"><g class="label" style="" transform="translate(0,-12)"><foreignObject width="252.203125" height="24"><div xmlns="http://www.w3.org/1999/xhtml" style="display: table-cell; white-space: nowrap; line-height: 1.5; max-width: 277px; text-align: center;"><span class="nodeLabel markdown-node-label" style=""><p>title = "Right relating to education"</p></span></div></foreignObject></g><g class="label" style="" transform="translate(0,12)"><foreignObject width="205.59375" height="24"><div xmlns="http://www.w3.org/1999/xhtml" style="display: table-cell; white-space: nowrap; line-height: 1.5; max-width: 237px; text-align: center;"><span class="nodeLabel markdown-node-label" style=""><p>citation = "Part 3, Article 31"</p></span></div></foreignObject></g><g class="label" style="" transform="translate(0,36)"><foreignObject width="165.421875" height="24"><div xmlns="http://www.w3.org/1999/xhtml" style="display: table-cell; white-space: nowrap; line-height: 1.5; max-width: 199px; text-align: center;"><span class="nodeLabel markdown-node-label" style=""><p>relevance_score = 9.12</p></span></div></foreignObject></g><g class="label" style="" transform="translate(0,60)"><foreignObject width="134.375" height="24"><div xmlns="http://www.w3.org/1999/xhtml" style="display: table-cell; white-space: nowrap; line-height: 1.5; max-width: 174px; text-align: center;"><span class="nodeLabel markdown-node-label" style=""><p>bm25_score = 7.04</p></span></div></foreignObject></g><g class="label" style="" transform="translate(0,84)"><foreignObject width="163.78125" height="24"><div xmlns="http://www.w3.org/1999/xhtml" style="display: table-cell; white-space: nowrap; line-height: 1.5; max-width: 201px; text-align: center;"><span class="nodeLabel markdown-node-label" style=""><p>proximity_score = 2.08</p></span></div></foreignObject></g></g><g class="methods-group text" transform="translate(-152.4375, 108)"/><g class="divider" style=""><path d="M-164.4375 -60 C-97.7574134569397 -59.999797247931454, -31.077326913879403 -59.99959449586291, 164.4375 -59.999 M-164.4375 -60 C-88.99817685505218 -59.999770613992716, -13.558853710104358 -59.99954122798544, 164.4375 -59.999" stroke="#9370DB" stroke-width="1.3" fill="none" stroke-dasharray="0 0" style=""/></g><g class="divider" style=""><path d="M-164.4375 84 C-76.33417234084382 84.00026789305255, 11.769155318312357 84.00053578610512, 164.4375 84.001 M-164.4375 84 C-73.83735588732416 84.00027548504481, 16.76278822535167 84.00055097008963, 164.4375 84.001" stroke="#9370DB" stroke-width="1.3" fill="none" stroke-dasharray="0 0" style=""/></g></g><g class="node default" id="my-svg-classId-art_info-5" data-look="classic" transform="translate(460.30859375, 528)"><g class="basic label-container outer-path"><path d="M-129.86328125 -108 L129.86328125 -108 L129.86328125 108 L-129.86328125 108" stroke="none" stroke-width="0" fill="#ECECFF" style=""/><path d="M-129.86328125 -108 C-69.65091615521351 -108, -9.438551060427002 -108, 129.86328125 -108 M-129.86328125 -108 C-73.70685815183695 -108, -17.550435053673908 -108, 129.86328125 -108 M129.86328125 -108 C129.86328125 -51.2387443644302, 129.86328125 5.5225112711396065, 129.86328125 108 M129.86328125 -108 C129.86328125 -58.85361443960285, 129.86328125 -9.7072288792057, 129.86328125 108 M129.86328125 108 C64.79187084269434 108, -0.27953956461132634 108, -129.86328125 108 M129.86328125 108 C77.4174032593471 108, 24.971525268694194 108, -129.86328125 108 M-129.86328125 108 C-129.86328125 39.37890344919754, -129.86328125 -29.242193101604926, -129.86328125 -108 M-129.86328125 108 C-129.86328125 22.293810623268698, -129.86328125 -63.412378753462605, -129.86328125 -108" stroke="#9370DB" stroke-width="1.3" fill="none" stroke-dasharray="0 0" style=""/></g><g class="annotation-group text" transform="translate(0, -84)"/><g class="label-group text" transform="translate(-30.1328125, -84)"><g class="label" style="font-weight: bolder" transform="translate(0,-12)"><foreignObject width="60.265625" height="24"><div xmlns="http://www.w3.org/1999/xhtml" style="display: table-cell; white-space: nowrap; line-height: 1.5; max-width: 101px; text-align: center;"><span class="nodeLabel markdown-node-label" style=""><p>art_info</p></span></div></foreignObject></g></g><g class="members-group text" transform="translate(-117.86328125, -36)"><g class="label" style="" transform="translate(0,-12)"><foreignObject width="204.625" height="24"><div xmlns="http://www.w3.org/1999/xhtml" style="display: table-cell; white-space: nowrap; line-height: 1.5; max-width: 238px; text-align: center;"><span class="nodeLabel markdown-node-label" style=""><p>title = "Right to information"</p></span></div></foreignObject></g><g class="label" style="" transform="translate(0,12)"><foreignObject width="205.59375" height="24"><div xmlns="http://www.w3.org/1999/xhtml" style="display: table-cell; white-space: nowrap; line-height: 1.5; max-width: 237px; text-align: center;"><span class="nodeLabel markdown-node-label" style=""><p>citation = "Part 3, Article 27"</p></span></div></foreignObject></g><g class="label" style="" transform="translate(0,36)"><foreignObject width="165.421875" height="24"><div xmlns="http://www.w3.org/1999/xhtml" style="display: table-cell; white-space: nowrap; line-height: 1.5; max-width: 199px; text-align: center;"><span class="nodeLabel markdown-node-label" style=""><p>relevance_score = 7.85</p></span></div></foreignObject></g><g class="label" style="" transform="translate(0,60)"><foreignObject width="134.375" height="24"><div xmlns="http://www.w3.org/1999/xhtml" style="display: table-cell; white-space: nowrap; line-height: 1.5; max-width: 174px; text-align: center;"><span class="nodeLabel markdown-node-label" style=""><p>bm25_score = 5.91</p></span></div></foreignObject></g><g class="label" style="" transform="translate(0,84)"><foreignObject width="163.78125" height="24"><div xmlns="http://www.w3.org/1999/xhtml" style="display: table-cell; white-space: nowrap; line-height: 1.5; max-width: 201px; text-align: center;"><span class="nodeLabel markdown-node-label" style=""><p>proximity_score = 1.94</p></span></div></foreignObject></g></g><g class="methods-group text" transform="translate(-117.86328125, 108)"/><g class="divider" style=""><path d="M-129.86328125 -60 C-58.36047800950122 -59.999724699689736, 13.142325230997557 -59.99944939937947, 129.86328125 -59.999 M-129.86328125 -60 C-57.05236467352354 -59.9997196631878, 15.758551902952917 -59.99943932637559, 129.86328125 -59.999" stroke="#9370DB" stroke-width="1.3" fill="none" stroke-dasharray="0 0" style=""/></g><g class="divider" style=""><path d="M-129.86328125 84 C-71.43493054857859 84.00022496101337, -13.006579847157184 84.00044992202676, 129.86328125 84.001 M-129.86328125 84 C-42.55776161590707 84.00033614397694, 44.74775801818586 84.00067228795388, 129.86328125 84.001" stroke="#9370DB" stroke-width="1.3" fill="none" stroke-dasharray="0 0" style=""/></g></g></g></g></g><defs><filter id="my-svg-drop-shadow" height="130%" width="130%"><feDropShadow dx="4" dy="4" stdDeviation="0" flood-opacity="0.06" flood-color="#000000"/></filter></defs><defs><filter id="my-svg-drop-shadow-small" height="150%" width="150%"><feDropShadow dx="2" dy="2" stdDeviation="0" flood-opacity="0.06" flood-color="#000000"/></filter></defs></svg>